<svg width="179" height="177" viewBox="0 0 179 177" fill="none" xmlns="http://www.w3.org/2000/svg">
<path id="Pattern" opacity="0.16" fill-rule="evenodd" clip-rule="evenodd" d="M177.949 4.5C177.949 6.98528 175.866 9 173.296 9C170.726 9 168.643 6.98528 168.643 4.5C168.643 2.01472 170.726 0 173.296 0C175.866 0 177.949 2.01472 177.949 4.5ZM173.296 33C175.866 33 177.949 30.9853 177.949 28.5C177.949 26.0147 175.866 24 173.296 24C170.726 24 168.643 26.0147 168.643 28.5C168.643 30.9853 170.726 33 173.296 33ZM177.949 52.5C177.949 54.9853 175.866 57 173.296 57C170.726 57 168.643 54.9853 168.643 52.5C168.643 50.0147 170.726 48 173.296 48C175.866 48 177.949 50.0147 177.949 52.5ZM173.296 81C175.866 81 177.949 78.9853 177.949 76.5C177.949 74.0147 175.866 72 173.296 72C170.726 72 168.643 74.0147 168.643 76.5C168.643 78.9853 170.726 81 173.296 81ZM177.949 100.5C177.949 102.985 175.866 105 173.296 105C170.726 105 168.643 102.985 168.643 100.5C168.643 98.0147 170.726 96 173.296 96C175.866 96 177.949 98.0147 177.949 100.5ZM173.296 129C175.866 129 177.949 126.985 177.949 124.5C177.949 122.015 175.866 120 173.296 120C170.726 120 168.643 122.015 168.643 124.5C168.643 126.985 170.726 129 173.296 129ZM177.949 148.5C177.949 150.985 175.866 153 173.296 153C170.726 153 168.643 150.985 168.643 148.5C168.643 146.015 170.726 144 173.296 144C175.866 144 177.949 146.015 177.949 148.5ZM5.78575 177C8.35557 177 10.4388 174.985 10.4388 172.5C10.4388 170.015 8.35557 168 5.78575 168C3.21594 168 1.13269 170.015 1.13269 172.5C1.13269 174.985 3.21594 177 5.78575 177ZM38.3572 172.5C38.3572 174.985 36.2739 177 33.7041 177C31.1343 177 29.0511 174.985 29.0511 172.5C29.0511 170.015 31.1343 168 33.7041 168C36.2739 168 38.3572 170.015 38.3572 172.5ZM61.6225 177C64.1923 177 66.2755 174.985 66.2755 172.5C66.2755 170.015 64.1923 168 61.6225 168C59.0527 168 56.9694 170.015 56.9694 172.5C56.9694 174.985 59.0527 177 61.6225 177ZM94.1939 172.5C94.1939 174.985 92.1107 177 89.5408 177C86.971 177 84.8878 174.985 84.8878 172.5C84.8878 170.015 86.971 168 89.5408 168C92.1107 168 94.1939 170.015 94.1939 172.5ZM117.459 177C120.029 177 122.112 174.985 122.112 172.5C122.112 170.015 120.029 168 117.459 168C114.889 168 112.806 170.015 112.806 172.5C112.806 174.985 114.889 177 117.459 177ZM150.031 172.5C150.031 174.985 147.947 177 145.378 177C142.808 177 140.725 174.985 140.725 172.5C140.725 170.015 142.808 168 145.378 168C147.947 168 150.031 170.015 150.031 172.5ZM177.949 172.5C177.949 174.985 175.866 177 173.296 177C170.726 177 168.643 174.985 168.643 172.5C168.643 170.015 170.726 168 173.296 168C175.866 168 177.949 170.015 177.949 172.5ZM145.378 153C147.947 153 150.031 150.985 150.031 148.5C150.031 146.015 147.947 144 145.378 144C142.808 144 140.725 146.015 140.725 148.5C140.725 150.985 142.808 153 145.378 153ZM122.112 148.5C122.112 150.985 120.029 153 117.459 153C114.889 153 112.806 150.985 112.806 148.5C112.806 146.015 114.889 144 117.459 144C120.029 144 122.112 146.015 122.112 148.5ZM89.5408 153C92.1107 153 94.1939 150.985 94.1939 148.5C94.1939 146.015 92.1107 144 89.5408 144C86.971 144 84.8878 146.015 84.8878 148.5C84.8878 150.985 86.971 153 89.5408 153ZM66.2755 148.5C66.2755 150.985 64.1923 153 61.6225 153C59.0527 153 56.9694 150.985 56.9694 148.5C56.9694 146.015 59.0527 144 61.6225 144C64.1923 144 66.2755 146.015 66.2755 148.5ZM33.7041 153C36.2739 153 38.3572 150.985 38.3572 148.5C38.3572 146.015 36.2739 144 33.7041 144C31.1343 144 29.0511 146.015 29.0511 148.5C29.0511 150.985 31.1343 153 33.7041 153ZM10.4388 148.5C10.4388 150.985 8.35557 153 5.78575 153C3.21594 153 1.13269 150.985 1.13269 148.5C1.13269 146.015 3.21594 144 5.78575 144C8.35557 144 10.4388 146.015 10.4388 148.5ZM150.031 124.5C150.031 126.985 147.947 129 145.378 129C142.808 129 140.725 126.985 140.725 124.5C140.725 122.015 142.808 120 145.378 120C147.947 120 150.031 122.015 150.031 124.5ZM117.459 129C120.029 129 122.112 126.985 122.112 124.5C122.112 122.015 120.029 120 117.459 120C114.889 120 112.806 122.015 112.806 124.5C112.806 126.985 114.889 129 117.459 129ZM94.1939 124.5C94.1939 126.985 92.1107 129 89.5408 129C86.971 129 84.8878 126.985 84.8878 124.5C84.8878 122.015 86.971 120 89.5408 120C92.1107 120 94.1939 122.015 94.1939 124.5ZM61.6225 129C64.1923 129 66.2755 126.985 66.2755 124.5C66.2755 122.015 64.1923 120 61.6225 120C59.0527 120 56.9694 122.015 56.9694 124.5C56.9694 126.985 59.0527 129 61.6225 129ZM38.3572 124.5C38.3572 126.985 36.2739 129 33.7041 129C31.1343 129 29.0511 126.985 29.0511 124.5C29.0511 122.015 31.1343 120 33.7041 120C36.2739 120 38.3572 122.015 38.3572 124.5ZM5.78575 129C8.35557 129 10.4388 126.985 10.4388 124.5C10.4388 122.015 8.35557 120 5.78575 120C3.21594 120 1.13269 122.015 1.13269 124.5C1.13269 126.985 3.21594 129 5.78575 129ZM145.378 105C147.947 105 150.031 102.985 150.031 100.5C150.031 98.0147 147.947 96 145.378 96C142.808 96 140.725 98.0147 140.725 100.5C140.725 102.985 142.808 105 145.378 105ZM122.112 100.5C122.112 102.985 120.029 105 117.459 105C114.889 105 112.806 102.985 112.806 100.5C112.806 98.0147 114.889 96 117.459 96C120.029 96 122.112 98.0147 122.112 100.5ZM89.5408 105C92.1107 105 94.1939 102.985 94.1939 100.5C94.1939 98.0147 92.1107 96 89.5408 96C86.971 96 84.8878 98.0147 84.8878 100.5C84.8878 102.985 86.971 105 89.5408 105ZM66.2755 100.5C66.2755 102.985 64.1923 105 61.6225 105C59.0527 105 56.9694 102.985 56.9694 100.5C56.9694 98.0147 59.0527 96 61.6225 96C64.1923 96 66.2755 98.0147 66.2755 100.5ZM33.7041 105C36.2739 105 38.3572 102.985 38.3572 100.5C38.3572 98.0147 36.2739 96 33.7041 96C31.1343 96 29.0511 98.0147 29.0511 100.5C29.0511 102.985 31.1343 105 33.7041 105ZM10.4388 100.5C10.4388 102.985 8.35557 105 5.78575 105C3.21594 105 1.13269 102.985 1.13269 100.5C1.13269 98.0147 3.21594 96 5.78575 96C8.35557 96 10.4388 98.0147 10.4388 100.5ZM150.031 76.5C150.031 78.9853 147.947 81 145.378 81C142.808 81 140.725 78.9853 140.725 76.5C140.725 74.0147 142.808 72 145.378 72C147.947 72 150.031 74.0147 150.031 76.5ZM117.459 81C120.029 81 122.112 78.9853 122.112 76.5C122.112 74.0147 120.029 72 117.459 72C114.889 72 112.806 74.0147 112.806 76.5C112.806 78.9853 114.889 81 117.459 81ZM94.1939 76.5C94.1939 78.9853 92.1107 81 89.5408 81C86.971 81 84.8878 78.9853 84.8878 76.5C84.8878 74.0147 86.971 72 89.5408 72C92.1107 72 94.1939 74.0147 94.1939 76.5ZM61.6225 81C64.1923 81 66.2755 78.9853 66.2755 76.5C66.2755 74.0147 64.1923 72 61.6225 72C59.0527 72 56.9694 74.0147 56.9694 76.5C56.9694 78.9853 59.0527 81 61.6225 81ZM38.3572 76.5C38.3572 78.9853 36.2739 81 33.7041 81C31.1343 81 29.0511 78.9853 29.0511 76.5C29.0511 74.0147 31.1343 72 33.7041 72C36.2739 72 38.3572 74.0147 38.3572 76.5ZM5.78575 81C8.35557 81 10.4388 78.9853 10.4388 76.5C10.4388 74.0147 8.35557 72 5.78575 72C3.21594 72 1.13269 74.0147 1.13269 76.5C1.13269 78.9853 3.21594 81 5.78575 81ZM145.378 57C147.947 57 150.031 54.9853 150.031 52.5C150.031 50.0147 147.947 48 145.378 48C142.808 48 140.725 50.0147 140.725 52.5C140.725 54.9853 142.808 57 145.378 57ZM122.112 52.5C122.112 54.9853 120.029 57 117.459 57C114.889 57 112.806 54.9853 112.806 52.5C112.806 50.0147 114.889 48 117.459 48C120.029 48 122.112 50.0147 122.112 52.5ZM89.5408 57C92.1107 57 94.1939 54.9853 94.1939 52.5C94.1939 50.0147 92.1107 48 89.5408 48C86.971 48 84.8878 50.0147 84.8878 52.5C84.8878 54.9853 86.971 57 89.5408 57ZM66.2755 52.5C66.2755 54.9853 64.1923 57 61.6225 57C59.0527 57 56.9694 54.9853 56.9694 52.5C56.9694 50.0147 59.0527 48 61.6225 48C64.1923 48 66.2755 50.0147 66.2755 52.5ZM33.7041 57C36.2739 57 38.3572 54.9853 38.3572 52.5C38.3572 50.0147 36.2739 48 33.7041 48C31.1343 48 29.0511 50.0147 29.0511 52.5C29.0511 54.9853 31.1343 57 33.7041 57ZM10.4388 52.5C10.4388 54.9853 8.35557 57 5.78575 57C3.21594 57 1.13269 54.9853 1.13269 52.5C1.13269 50.0147 3.21594 48 5.78575 48C8.35557 48 10.4388 50.0147 10.4388 52.5ZM150.031 28.5C150.031 30.9853 147.947 33 145.378 33C142.808 33 140.725 30.9853 140.725 28.5C140.725 26.0147 142.808 24 145.378 24C147.947 24 150.031 26.0147 150.031 28.5ZM117.459 33C120.029 33 122.112 30.9853 122.112 28.5C122.112 26.0147 120.029 24 117.459 24C114.889 24 112.806 26.0147 112.806 28.5C112.806 30.9853 114.889 33 117.459 33ZM94.1939 28.5C94.1939 30.9853 92.1107 33 89.5408 33C86.971 33 84.8878 30.9853 84.8878 28.5C84.8878 26.0147 86.971 24 89.5408 24C92.1107 24 94.1939 26.0147 94.1939 28.5ZM61.6225 33C64.1923 33 66.2755 30.9853 66.2755 28.5C66.2755 26.0147 64.1923 24 61.6225 24C59.0527 24 56.9694 26.0147 56.9694 28.5C56.9694 30.9853 59.0527 33 61.6225 33ZM38.3572 28.5C38.3572 30.9853 36.2739 33 33.7041 33C31.1343 33 29.0511 30.9853 29.0511 28.5C29.0511 26.0147 31.1343 24 33.7041 24C36.2739 24 38.3572 26.0147 38.3572 28.5ZM5.78575 33C8.35557 33 10.4388 30.9853 10.4388 28.5C10.4388 26.0147 8.35557 24 5.78575 24C3.21594 24 1.13269 26.0147 1.13269 28.5C1.13269 30.9853 3.21594 33 5.78575 33ZM145.378 9C147.947 9 150.031 6.98528 150.031 4.5C150.031 2.01472 147.947 0 145.378 0C142.808 0 140.725 2.01472 140.725 4.5C140.725 6.98528 142.808 9 145.378 9ZM122.112 4.5C122.112 6.98528 120.029 9 117.459 9C114.889 9 112.806 6.98528 112.806 4.5C112.806 2.01472 114.889 0 117.459 0C120.029 0 122.112 2.01472 122.112 4.5ZM89.5408 9C92.1107 9 94.1939 6.98528 94.1939 4.5C94.1939 2.01472 92.1107 0 89.5408 0C86.971 0 84.8878 2.01472 84.8878 4.5C84.8878 6.98528 86.971 9 89.5408 9ZM66.2755 4.5C66.2755 6.98528 64.1923 9 61.6225 9C59.0527 9 56.9694 6.98528 56.9694 4.5C56.9694 2.01472 59.0527 0 61.6225 0C64.1923 0 66.2755 2.01472 66.2755 4.5ZM33.7041 9C36.2739 9 38.3572 6.98528 38.3572 4.5C38.3572 2.01472 36.2739 0 33.7041 0C31.1343 0 29.0511 2.01472 29.0511 4.5C29.0511 6.98528 31.1343 9 33.7041 9ZM10.4388 4.5C10.4388 6.98528 8.35557 9 5.78575 9C3.21594 9 1.13269 6.98528 1.13269 4.5C1.13269 2.01472 3.21594 0 5.78575 0C8.35557 0 10.4388 2.01472 10.4388 4.5Z" fill="#213D39"/>
</svg>
